<?xml version="1.0" encoding="UTF-8" standalone="no"?>
<!DOCTYPE svg PUBLIC "-//W3C//DTD SVG 1.1//EN"
 "http://www.w3.org/Graphics/SVG/1.1/DTD/svg11.dtd">
<!-- Generated by graphviz version 2.38.0 (20140413.2041)
 -->
<!-- Title: %3 Pages: 1 -->
<svg width="3122pt" height="1146pt"
 viewBox="0.00 0.00 3122.00 1146.00" xmlns="http://www.w3.org/2000/svg" xmlns:xlink="http://www.w3.org/1999/xlink">
<g id="graph0" class="graph" transform="scale(1 1) rotate(0) translate(4 1142)">
<title>%3</title>
<polygon fill="white" stroke="none" points="-4,4 -4,-1142 3118,-1142 3118,4 -4,4"/>
<!-- init -->
<g id="node1" class="node"><title>init</title>
<polygon fill="none" stroke="black" points="504,-1138 0,-1138 0,-1102 504,-1102 504,-1138"/>
<text text-anchor="middle" x="252" y="-1116.3" font-family="Monospace" font-size="14.00">Initial</text>
</g>
<!-- {1,1} -->
<g id="node2" class="node"><title>{1,1}</title>
<polygon fill="none" stroke="black" points="504,-1080 0,-1080 0,-1044 504,-1044 504,-1080"/>
<text text-anchor="start" x="8" y="-1058.3" font-family="Monospace" font-size="14.00"> &#160;&#160;&#160;&#160;&#160;&#160;&#160;1: P: table = ets:new(table, [...])</text>
</g>
<!-- init&#45;&gt;{1,1} -->
<g id="edge1" class="edge"><title>init&#45;&gt;{1,1}</title>
<path fill="none" stroke="black" d="M252,-1101.89C252,-1098.2 252,-1094.21 252,-1090.24"/>
<polygon fill="black" stroke="black" points="255.5,-1090 252,-1080 248.5,-1090 255.5,-1090"/>
</g>
<!-- {1,2} -->
<g id="node3" class="node"><title>{1,2}</title>
<polygon fill="none" stroke="black" points="504,-1022 0,-1022 0,-986 504,-986 504,-1022"/>
<text text-anchor="start" x="8" y="-1000.3" font-family="Monospace" font-size="14.00"> &#160;&#160;&#160;&#160;&#160;&#160;&#160;2: P: true = ets:insert(table, {...})</text>
</g>
<!-- {1,1}&#45;&gt;{1,2} -->
<g id="edge2" class="edge"><title>{1,1}&#45;&gt;{1,2}</title>
<path fill="none" stroke="black" d="M252,-1043.89C252,-1040.2 252,-1036.21 252,-1032.24"/>
<polygon fill="black" stroke="black" points="255.5,-1032 252,-1022 248.5,-1032 255.5,-1032"/>
</g>
<!-- {1,3} -->
<g id="node4" class="node"><title>{1,3}</title>
<polygon fill="none" stroke="black" points="504,-964 0,-964 0,-928 504,-928 504,-964"/>
<text text-anchor="start" x="8" y="-942.3" font-family="Monospace" font-size="14.00"> &#160;&#160;&#160;&#160;&#160;&#160;&#160;3: P: true = ets:insert(table, {...})</text>
</g>
<!-- {1,2}&#45;&gt;{1,3} -->
<g id="edge3" class="edge"><title>{1,2}&#45;&gt;{1,3}</title>
<path fill="none" stroke="black" d="M252,-985.894C252,-982.203 252,-978.213 252,-974.243"/>
<polygon fill="black" stroke="black" points="255.5,-974.001 252,-964.001 248.5,-974.001 255.5,-974.001"/>
</g>
<!-- {1,4} -->
<g id="node5" class="node"><title>{1,4}</title>
<polygon fill="none" stroke="black" points="504,-906 0,-906 0,-870 504,-870 504,-906"/>
<text text-anchor="start" x="8" y="-884.3" font-family="Monospace" font-size="14.00"> &#160;&#160;&#160;&#160;&#160;&#160;&#160;4: P: true = ets:insert(table, {...})</text>
</g>
<!-- {1,3}&#45;&gt;{1,4} -->
<g id="edge4" class="edge"><title>{1,3}&#45;&gt;{1,4}</title>
<path fill="none" stroke="black" d="M252,-927.894C252,-924.203 252,-920.213 252,-916.243"/>
<polygon fill="black" stroke="black" points="255.5,-916.001 252,-906.001 248.5,-916.001 255.5,-916.001"/>
</g>
<!-- {1,5} -->
<g id="node6" class="node"><title>{1,5}</title>
<polygon fill="none" stroke="black" points="504,-848 0,-848 0,-812 504,-812 504,-848"/>
<text text-anchor="start" x="8" y="-826.3" font-family="Monospace" font-size="14.00"> &#160;&#160;&#160;&#160;&#160;&#160;&#160;5: P: P.1 = erlang:spawn(erlang, apply, [...])</text>
</g>
<!-- {1,4}&#45;&gt;{1,5} -->
<g id="edge5" class="edge"><title>{1,4}&#45;&gt;{1,5}</title>
<path fill="none" stroke="black" d="M252,-869.894C252,-866.203 252,-862.213 252,-858.243"/>
<polygon fill="black" stroke="black" points="255.5,-858.001 252,-848.001 248.5,-858.001 255.5,-858.001"/>
</g>
<!-- {1,6} -->
<g id="node7" class="node"><title>{1,6}</title>
<polygon fill="none" stroke="black" points="504,-790 0,-790 0,-754 504,-754 504,-790"/>
<text text-anchor="start" x="8" y="-768.3" font-family="Monospace" font-size="14.00"> &#160;&#160;&#160;&#160;&#160;&#160;&#160;6: P: P.2 = erlang:spawn(erlang, apply, [...])</text>
</g>
<!-- {1,5}&#45;&gt;{1,6} -->
<g id="edge6" class="edge"><title>{1,5}&#45;&gt;{1,6}</title>
<path fill="none" stroke="black" d="M252,-811.894C252,-808.203 252,-804.213 252,-800.243"/>
<polygon fill="black" stroke="black" points="255.5,-800.001 252,-790.001 248.5,-800.001 255.5,-800.001"/>
</g>
<!-- {1,7} -->
<g id="node8" class="node"><title>{1,7}</title>
<polygon fill="none" stroke="black" points="504,-732 0,-732 0,-696 504,-696 504,-732"/>
<text text-anchor="start" x="8" y="-710.3" font-family="Monospace" font-size="14.00"> &#160;&#160;&#160;&#160;&#160;&#160;&#160;7: P: P.3 = erlang:spawn(erlang, apply, [...])</text>
</g>
<!-- {1,6}&#45;&gt;{1,7} -->
<g id="edge7" class="edge"><title>{1,6}&#45;&gt;{1,7}</title>
<path fill="none" stroke="black" d="M252,-753.894C252,-750.203 252,-746.213 252,-742.243"/>
<polygon fill="black" stroke="black" points="255.5,-742.001 252,-732.001 248.5,-742.001 255.5,-742.001"/>
</g>
<!-- {1,8} -->
<g id="node9" class="node"><title>{1,8}</title>
<polygon fill="none" stroke="black" points="504,-674 0,-674 0,-638 504,-638 504,-674"/>
<text text-anchor="start" x="8" y="-652.3" font-family="Monospace" font-size="14.00"> &#160;&#160;&#160;&#160;&#160;&#160;&#160;8: P.1: [...] = ets:lookup(table, 2)</text>
</g>
<!-- {1,7}&#45;&gt;{1,8} -->
<g id="edge8" class="edge"><title>{1,7}&#45;&gt;{1,8}</title>
<path fill="none" stroke="black" d="M252,-695.894C252,-692.203 252,-688.213 252,-684.243"/>
<polygon fill="black" stroke="black" points="255.5,-684.001 252,-674.001 248.5,-684.001 255.5,-684.001"/>
</g>
<!-- {3,8} -->
<g id="node27" class="node"><title>{3,8}</title>
<polygon fill="none" stroke="black" points="1548,-674 1044,-674 1044,-638 1548,-638 1548,-674"/>
<text text-anchor="start" x="1052" y="-652.3" font-family="Monospace" font-size="14.00"> &#160;&#160;&#160;&#160;&#160;&#160;&#160;8: P.2: [...] = ets:lookup(table, 0)</text>
</g>
<!-- {1,7}&#45;&gt;{3,8} -->
<!-- {6,8} -->
<g id="node54" class="node"><title>{6,8}</title>
<polygon fill="none" stroke="black" points="3114,-674 2610,-674 2610,-638 3114,-638 3114,-674"/>
<text text-anchor="start" x="2618" y="-652.3" font-family="Monospace" font-size="14.00"> &#160;&#160;&#160;&#160;&#160;&#160;&#160;8: P.3: [...] = ets:lookup(table, 0)</text>
</g>
<!-- {1,7}&#45;&gt;{6,8} -->
<!-- {1,9} -->
<g id="node10" class="node"><title>{1,9}</title>
<polygon fill="none" stroke="limegreen" stroke-width="5" points="504,-616 0,-616 0,-580 504,-580 504,-616"/>
<text text-anchor="start" x="8" y="-594.3" font-family="Monospace" font-size="14.00"> &#160;&#160;&#160;&#160;&#160;&#160;&#160;9: P.1: exits normally</text>
</g>
<!-- {1,8}&#45;&gt;{1,9} -->
<g id="edge9" class="edge"><title>{1,8}&#45;&gt;{1,9}</title>
<path fill="none" stroke="black" d="M252,-637.894C252,-634.203 252,-630.213 252,-626.243"/>
<polygon fill="black" stroke="black" points="255.5,-626.001 252,-616.001 248.5,-626.001 255.5,-626.001"/>
</g>
<!-- {1,8}&#45;&gt;{3,8} -->
<g id="edge28" class="edge"><title>{1,8}&#45;&gt;{3,8}</title>
<path fill="none" stroke="black" d="M504.079,-656C680.676,-656 857.272,-656 1033.87,-656"/>
<polygon fill="black" stroke="black" points="1033.88,-659.5 1043.88,-656 1033.88,-652.5 1033.88,-659.5"/>
</g>
<!-- {1,10} -->
<g id="node11" class="node"><title>{1,10}</title>
<polygon fill="none" stroke="black" points="504,-558 0,-558 0,-522 504,-522 504,-558"/>
<text text-anchor="start" x="8" y="-536.3" font-family="Monospace" font-size="14.00"> &#160;&#160;&#160;&#160;&#160;&#160;10: P.2: [...] = ets:lookup(table, 0)</text>
</g>
<!-- {1,9}&#45;&gt;{1,10} -->
<g id="edge10" class="edge"><title>{1,9}&#45;&gt;{1,10}</title>
<path fill="none" stroke="black" d="M252,-579.894C252,-576.203 252,-572.213 252,-568.243"/>
<polygon fill="black" stroke="black" points="255.5,-568.001 252,-558.001 248.5,-568.001 255.5,-568.001"/>
</g>
<!-- {1,11} -->
<g id="node12" class="node"><title>{1,11}</title>
<polygon fill="none" stroke="black" points="504,-500 0,-500 0,-464 504,-464 504,-500"/>
<text text-anchor="start" x="8" y="-478.3" font-family="Monospace" font-size="14.00"> &#160;&#160;&#160;&#160;&#160;&#160;11: P.2: [...] = ets:lookup(table, 0)</text>
</g>
<!-- {1,10}&#45;&gt;{1,11} -->
<g id="edge11" class="edge"><title>{1,10}&#45;&gt;{1,11}</title>
<path fill="none" stroke="black" d="M252,-521.894C252,-518.203 252,-514.213 252,-510.243"/>
<polygon fill="black" stroke="black" points="255.5,-510.001 252,-500.001 248.5,-510.001 255.5,-510.001"/>
</g>
<!-- {1,12} -->
<g id="node13" class="node"><title>{1,12}</title>
<polygon fill="none" stroke="black" points="504,-442 0,-442 0,-406 504,-406 504,-442"/>
<text text-anchor="start" x="8" y="-420.3" font-family="Monospace" font-size="14.00"> &#160;&#160;&#160;&#160;&#160;&#160;12: P.2: true = ets:insert(table, {...})</text>
</g>
<!-- {1,11}&#45;&gt;{1,12} -->
<g id="edge12" class="edge"><title>{1,11}&#45;&gt;{1,12}</title>
<path fill="none" stroke="black" d="M252,-463.894C252,-460.203 252,-456.213 252,-452.243"/>
<polygon fill="black" stroke="black" points="255.5,-452.001 252,-442.001 248.5,-452.001 255.5,-452.001"/>
</g>
<!-- {2,12} -->
<g id="node20" class="node"><title>{2,12}</title>
<polygon fill="none" stroke="black" points="1026,-442 522,-442 522,-406 1026,-406 1026,-442"/>
<text text-anchor="start" x="530" y="-420.3" font-family="Monospace" font-size="14.00"> &#160;&#160;&#160;&#160;&#160;&#160;12: P.3: [...] = ets:lookup(table, 0)</text>
</g>
<!-- {1,11}&#45;&gt;{2,12} -->
<!-- {1,13} -->
<g id="node14" class="node"><title>{1,13}</title>
<polygon fill="none" stroke="limegreen" stroke-width="5" points="504,-384 0,-384 0,-348 504,-348 504,-384"/>
<text text-anchor="start" x="8" y="-362.3" font-family="Monospace" font-size="14.00"> &#160;&#160;&#160;&#160;&#160;&#160;13: P.2: exits normally</text>
</g>
<!-- {1,12}&#45;&gt;{1,13} -->
<g id="edge13" class="edge"><title>{1,12}&#45;&gt;{1,13}</title>
<path fill="none" stroke="black" d="M252,-405.894C252,-402.203 252,-398.213 252,-394.243"/>
<polygon fill="black" stroke="black" points="255.5,-394.001 252,-384.001 248.5,-394.001 255.5,-394.001"/>
</g>
<!-- {1,12}&#45;&gt;{2,12} -->
<g id="edge20" class="edge"><title>{1,12}&#45;&gt;{2,12}</title>
<path fill="none" stroke="black" d="M504.079,-424C506.563,-424 509.046,-424 511.53,-424"/>
<polygon fill="black" stroke="black" points="511.74,-427.5 521.74,-424 511.74,-420.5 511.74,-427.5"/>
</g>
<!-- {1,14} -->
<g id="node15" class="node"><title>{1,14}</title>
<polygon fill="none" stroke="black" points="504,-326 0,-326 0,-290 504,-290 504,-326"/>
<text text-anchor="start" x="8" y="-304.3" font-family="Monospace" font-size="14.00"> &#160;&#160;&#160;&#160;&#160;&#160;14: P.3: [...] = ets:lookup(table, 0)</text>
</g>
<!-- {1,13}&#45;&gt;{1,14} -->
<g id="edge14" class="edge"><title>{1,13}&#45;&gt;{1,14}</title>
<path fill="none" stroke="black" d="M252,-347.894C252,-344.203 252,-340.213 252,-336.243"/>
<polygon fill="black" stroke="black" points="255.5,-336.001 252,-326.001 248.5,-336.001 255.5,-336.001"/>
</g>
<!-- {1,15} -->
<g id="node16" class="node"><title>{1,15}</title>
<polygon fill="none" stroke="black" points="504,-268 0,-268 0,-232 504,-232 504,-268"/>
<text text-anchor="start" x="8" y="-246.3" font-family="Monospace" font-size="14.00"> &#160;&#160;&#160;&#160;&#160;&#160;15: P.3: [...] = ets:lookup(table, 1)</text>
</g>
<!-- {1,14}&#45;&gt;{1,15} -->
<g id="edge15" class="edge"><title>{1,14}&#45;&gt;{1,15}</title>
<path fill="none" stroke="black" d="M252,-289.894C252,-286.203 252,-282.213 252,-278.243"/>
<polygon fill="black" stroke="black" points="255.5,-278.001 252,-268.001 248.5,-278.001 255.5,-278.001"/>
</g>
<!-- {1,16} -->
<g id="node17" class="node"><title>{1,16}</title>
<polygon fill="none" stroke="black" points="504,-210 0,-210 0,-174 504,-174 504,-210"/>
<text text-anchor="start" x="8" y="-188.3" font-family="Monospace" font-size="14.00"> &#160;&#160;&#160;&#160;&#160;&#160;16: P.3: true = ets:insert(table, {...})</text>
</g>
<!-- {1,15}&#45;&gt;{1,16} -->
<g id="edge16" class="edge"><title>{1,15}&#45;&gt;{1,16}</title>
<path fill="none" stroke="black" d="M252,-231.894C252,-228.203 252,-224.213 252,-220.243"/>
<polygon fill="black" stroke="black" points="255.5,-220.001 252,-210.001 248.5,-220.001 255.5,-220.001"/>
</g>
<!-- {1,17} -->
<g id="node18" class="node"><title>{1,17}</title>
<polygon fill="none" stroke="limegreen" stroke-width="5" points="504,-152 0,-152 0,-116 504,-116 504,-152"/>
<text text-anchor="start" x="8" y="-130.3" font-family="Monospace" font-size="14.00"> &#160;&#160;&#160;&#160;&#160;&#160;17: P.3: exits normally</text>
</g>
<!-- {1,16}&#45;&gt;{1,17} -->
<g id="edge17" class="edge"><title>{1,16}&#45;&gt;{1,17}</title>
<path fill="none" stroke="black" d="M252,-173.894C252,-170.203 252,-166.213 252,-162.243"/>
<polygon fill="black" stroke="black" points="255.5,-162.001 252,-152.001 248.5,-162.001 255.5,-162.001"/>
</g>
<!-- {1,final} -->
<g id="node19" class="node"><title>{1,final}</title>
<polygon fill="red" stroke="black" points="504,-94 0,-94 0,-58 504,-58 504,-94"/>
<text text-anchor="middle" x="252" y="-72.3" font-family="Monospace" font-size="14.00">1: Error ([P] blocked)</text>
</g>
<!-- {1,17}&#45;&gt;{1,final} -->
<g id="edge18" class="edge"><title>{1,17}&#45;&gt;{1,final}</title>
<path fill="none" stroke="black" d="M252,-115.894C252,-112.203 252,-108.213 252,-104.243"/>
<polygon fill="black" stroke="black" points="255.5,-104.001 252,-94.0014 248.5,-104.001 255.5,-104.001"/>
</g>
<!-- {2,13} -->
<g id="node21" class="node"><title>{2,13}</title>
<polygon fill="none" stroke="black" points="1026,-384 522,-384 522,-348 1026,-348 1026,-384"/>
<text text-anchor="start" x="530" y="-362.3" font-family="Monospace" font-size="14.00"> &#160;&#160;&#160;&#160;&#160;&#160;13: P.3: [...] = ets:lookup(table, 1)</text>
</g>
<!-- {2,12}&#45;&gt;{2,13} -->
<g id="edge21" class="edge"><title>{2,12}&#45;&gt;{2,13}</title>
<path fill="none" stroke="black" d="M774,-405.894C774,-402.203 774,-398.213 774,-394.243"/>
<polygon fill="black" stroke="black" points="777.5,-394.001 774,-384.001 770.5,-394.001 777.5,-394.001"/>
</g>
<!-- {2,14} -->
<g id="node22" class="node"><title>{2,14}</title>
<polygon fill="none" stroke="black" points="1026,-326 522,-326 522,-290 1026,-290 1026,-326"/>
<text text-anchor="start" x="530" y="-304.3" font-family="Monospace" font-size="14.00"> &#160;&#160;&#160;&#160;&#160;&#160;14: P.3: true = ets:insert(table, {...})</text>
</g>
<!-- {2,13}&#45;&gt;{2,14} -->
<g id="edge22" class="edge"><title>{2,13}&#45;&gt;{2,14}</title>
<path fill="none" stroke="black" d="M774,-347.894C774,-344.203 774,-340.213 774,-336.243"/>
<polygon fill="black" stroke="black" points="777.5,-336.001 774,-326.001 770.5,-336.001 777.5,-336.001"/>
</g>
<!-- {2,15} -->
<g id="node23" class="node"><title>{2,15}</title>
<polygon fill="none" stroke="limegreen" stroke-width="5" points="1026,-268 522,-268 522,-232 1026,-232 1026,-268"/>
<text text-anchor="start" x="530" y="-246.3" font-family="Monospace" font-size="14.00"> &#160;&#160;&#160;&#160;&#160;&#160;15: P.3: exits normally</text>
</g>
<!-- {2,14}&#45;&gt;{2,15} -->
<g id="edge23" class="edge"><title>{2,14}&#45;&gt;{2,15}</title>
<path fill="none" stroke="black" d="M774,-289.894C774,-286.203 774,-282.213 774,-278.243"/>
<polygon fill="black" stroke="black" points="777.5,-278.001 774,-268.001 770.5,-278.001 777.5,-278.001"/>
</g>
<!-- {2,16} -->
<g id="node24" class="node"><title>{2,16}</title>
<polygon fill="none" stroke="black" points="1026,-210 522,-210 522,-174 1026,-174 1026,-210"/>
<text text-anchor="start" x="530" y="-188.3" font-family="Monospace" font-size="14.00"> &#160;&#160;&#160;&#160;&#160;&#160;16: P.2: true = ets:insert(table, {...})</text>
</g>
<!-- {2,15}&#45;&gt;{2,16} -->
<g id="edge24" class="edge"><title>{2,15}&#45;&gt;{2,16}</title>
<path fill="none" stroke="black" d="M774,-231.894C774,-228.203 774,-224.213 774,-220.243"/>
<polygon fill="black" stroke="black" points="777.5,-220.001 774,-210.001 770.5,-220.001 777.5,-220.001"/>
</g>
<!-- {2,17} -->
<g id="node25" class="node"><title>{2,17}</title>
<polygon fill="none" stroke="limegreen" stroke-width="5" points="1026,-152 522,-152 522,-116 1026,-116 1026,-152"/>
<text text-anchor="start" x="530" y="-130.3" font-family="Monospace" font-size="14.00"> &#160;&#160;&#160;&#160;&#160;&#160;17: P.2: exits normally</text>
</g>
<!-- {2,16}&#45;&gt;{2,17} -->
<g id="edge25" class="edge"><title>{2,16}&#45;&gt;{2,17}</title>
<path fill="none" stroke="black" d="M774,-173.894C774,-170.203 774,-166.213 774,-162.243"/>
<polygon fill="black" stroke="black" points="777.5,-162.001 774,-152.001 770.5,-162.001 777.5,-162.001"/>
</g>
<!-- {2,final} -->
<g id="node26" class="node"><title>{2,final}</title>
<polygon fill="red" stroke="black" points="1026,-94 522,-94 522,-58 1026,-58 1026,-94"/>
<text text-anchor="middle" x="774" y="-72.3" font-family="Monospace" font-size="14.00">2: Error ([P] blocked)</text>
</g>
<!-- {2,17}&#45;&gt;{2,final} -->
<g id="edge26" class="edge"><title>{2,17}&#45;&gt;{2,final}</title>
<path fill="none" stroke="black" d="M774,-115.894C774,-112.203 774,-108.213 774,-104.243"/>
<polygon fill="black" stroke="black" points="777.5,-104.001 774,-94.0014 770.5,-104.001 777.5,-104.001"/>
</g>
<!-- {3,9} -->
<g id="node28" class="node"><title>{3,9}</title>
<polygon fill="none" stroke="black" points="1548,-616 1044,-616 1044,-580 1548,-580 1548,-616"/>
<text text-anchor="start" x="1052" y="-594.3" font-family="Monospace" font-size="14.00"> &#160;&#160;&#160;&#160;&#160;&#160;&#160;9: P.2: [...] = ets:lookup(table, 0)</text>
</g>
<!-- {3,8}&#45;&gt;{3,9} -->
<g id="edge29" class="edge"><title>{3,8}&#45;&gt;{3,9}</title>
<path fill="none" stroke="black" d="M1296,-637.894C1296,-634.203 1296,-630.213 1296,-626.243"/>
<polygon fill="black" stroke="black" points="1299.5,-626.001 1296,-616.001 1292.5,-626.001 1299.5,-626.001"/>
</g>
<!-- {3,8}&#45;&gt;{6,8} -->
<g id="edge58" class="edge"><title>{3,8}&#45;&gt;{6,8}</title>
<path fill="none" stroke="black" d="M1548.33,-656C1898.82,-656 2249.32,-656 2599.81,-656"/>
<polygon fill="black" stroke="black" points="2599.91,-659.5 2609.91,-656 2599.91,-652.5 2599.91,-659.5"/>
</g>
<!-- {3,10} -->
<g id="node29" class="node"><title>{3,10}</title>
<polygon fill="none" stroke="black" points="1548,-558 1044,-558 1044,-522 1548,-522 1548,-558"/>
<text text-anchor="start" x="1052" y="-536.3" font-family="Monospace" font-size="14.00"> &#160;&#160;&#160;&#160;&#160;&#160;10: P.2: true = ets:insert(table, {...})</text>
</g>
<!-- {3,9}&#45;&gt;{3,10} -->
<g id="edge30" class="edge"><title>{3,9}&#45;&gt;{3,10}</title>
<path fill="none" stroke="black" d="M1296,-579.894C1296,-576.203 1296,-572.213 1296,-568.243"/>
<polygon fill="black" stroke="black" points="1299.5,-568.001 1296,-558.001 1292.5,-568.001 1299.5,-568.001"/>
</g>
<!-- {4,10} -->
<g id="node39" class="node"><title>{4,10}</title>
<polygon fill="none" stroke="black" points="2070,-558 1566,-558 1566,-522 2070,-522 2070,-558"/>
<text text-anchor="start" x="1574" y="-536.3" font-family="Monospace" font-size="14.00"> &#160;&#160;&#160;&#160;&#160;&#160;10: P.3: [...] = ets:lookup(table, 0)</text>
</g>
<!-- {3,9}&#45;&gt;{4,10} -->
<!-- {3,11} -->
<g id="node30" class="node"><title>{3,11}</title>
<polygon fill="none" stroke="limegreen" stroke-width="5" points="1548,-500 1044,-500 1044,-464 1548,-464 1548,-500"/>
<text text-anchor="start" x="1052" y="-478.3" font-family="Monospace" font-size="14.00"> &#160;&#160;&#160;&#160;&#160;&#160;11: P.2: exits normally</text>
</g>
<!-- {3,10}&#45;&gt;{3,11} -->
<g id="edge31" class="edge"><title>{3,10}&#45;&gt;{3,11}</title>
<path fill="none" stroke="black" d="M1296,-521.894C1296,-518.203 1296,-514.213 1296,-510.243"/>
<polygon fill="black" stroke="black" points="1299.5,-510.001 1296,-500.001 1292.5,-510.001 1299.5,-510.001"/>
</g>
<!-- {3,10}&#45;&gt;{4,10} -->
<g id="edge41" class="edge"><title>{3,10}&#45;&gt;{4,10}</title>
<path fill="none" stroke="black" d="M1548.08,-540C1550.56,-540 1553.05,-540 1555.53,-540"/>
<polygon fill="black" stroke="black" points="1555.74,-543.5 1565.74,-540 1555.74,-536.5 1555.74,-543.5"/>
</g>
<!-- {3,12} -->
<g id="node31" class="node"><title>{3,12}</title>
<polygon fill="none" stroke="black" points="1548,-442 1044,-442 1044,-406 1548,-406 1548,-442"/>
<text text-anchor="start" x="1052" y="-420.3" font-family="Monospace" font-size="14.00"> &#160;&#160;&#160;&#160;&#160;&#160;12: P.3: [...] = ets:lookup(table, 0)</text>
</g>
<!-- {3,11}&#45;&gt;{3,12} -->
<g id="edge32" class="edge"><title>{3,11}&#45;&gt;{3,12}</title>
<path fill="none" stroke="black" d="M1296,-463.894C1296,-460.203 1296,-456.213 1296,-452.243"/>
<polygon fill="black" stroke="black" points="1299.5,-452.001 1296,-442.001 1292.5,-452.001 1299.5,-452.001"/>
</g>
<!-- {3,13} -->
<g id="node32" class="node"><title>{3,13}</title>
<polygon fill="none" stroke="black" points="1548,-384 1044,-384 1044,-348 1548,-348 1548,-384"/>
<text text-anchor="start" x="1052" y="-362.3" font-family="Monospace" font-size="14.00"> &#160;&#160;&#160;&#160;&#160;&#160;13: P.3: [...] = ets:lookup(table, 1)</text>
</g>
<!-- {3,12}&#45;&gt;{3,13} -->
<g id="edge33" class="edge"><title>{3,12}&#45;&gt;{3,13}</title>
<path fill="none" stroke="black" d="M1296,-405.894C1296,-402.203 1296,-398.213 1296,-394.243"/>
<polygon fill="black" stroke="black" points="1299.5,-394.001 1296,-384.001 1292.5,-394.001 1299.5,-394.001"/>
</g>
<!-- {3,14} -->
<g id="node33" class="node"><title>{3,14}</title>
<polygon fill="none" stroke="black" points="1548,-326 1044,-326 1044,-290 1548,-290 1548,-326"/>
<text text-anchor="start" x="1052" y="-304.3" font-family="Monospace" font-size="14.00"> &#160;&#160;&#160;&#160;&#160;&#160;14: P.3: true = ets:insert(table, {...})</text>
</g>
<!-- {3,13}&#45;&gt;{3,14} -->
<g id="edge34" class="edge"><title>{3,13}&#45;&gt;{3,14}</title>
<path fill="none" stroke="black" d="M1296,-347.894C1296,-344.203 1296,-340.213 1296,-336.243"/>
<polygon fill="black" stroke="black" points="1299.5,-336.001 1296,-326.001 1292.5,-336.001 1299.5,-336.001"/>
</g>
<!-- {3,15} -->
<g id="node34" class="node"><title>{3,15}</title>
<polygon fill="none" stroke="limegreen" stroke-width="5" points="1548,-268 1044,-268 1044,-232 1548,-232 1548,-268"/>
<text text-anchor="start" x="1052" y="-246.3" font-family="Monospace" font-size="14.00"> &#160;&#160;&#160;&#160;&#160;&#160;15: P.3: exits normally</text>
</g>
<!-- {3,14}&#45;&gt;{3,15} -->
<g id="edge35" class="edge"><title>{3,14}&#45;&gt;{3,15}</title>
<path fill="none" stroke="black" d="M1296,-289.894C1296,-286.203 1296,-282.213 1296,-278.243"/>
<polygon fill="black" stroke="black" points="1299.5,-278.001 1296,-268.001 1292.5,-278.001 1299.5,-278.001"/>
</g>
<!-- {3,16} -->
<g id="node35" class="node"><title>{3,16}</title>
<polygon fill="none" stroke="black" points="1548,-210 1044,-210 1044,-174 1548,-174 1548,-210"/>
<text text-anchor="start" x="1052" y="-188.3" font-family="Monospace" font-size="14.00"> &#160;&#160;&#160;&#160;&#160;&#160;16: P.1: [...] = ets:lookup(table, 2)</text>
</g>
<!-- {3,15}&#45;&gt;{3,16} -->
<g id="edge36" class="edge"><title>{3,15}&#45;&gt;{3,16}</title>
<path fill="none" stroke="black" d="M1296,-231.894C1296,-228.203 1296,-224.213 1296,-220.243"/>
<polygon fill="black" stroke="black" points="1299.5,-220.001 1296,-210.001 1292.5,-220.001 1299.5,-220.001"/>
</g>
<!-- {3,17} -->
<g id="node36" class="node"><title>{3,17}</title>
<polygon fill="none" stroke="black" points="1548,-152 1044,-152 1044,-116 1548,-116 1548,-152"/>
<text text-anchor="start" x="1052" y="-130.3" font-family="Monospace" font-size="14.00"> &#160;&#160;&#160;&#160;&#160;&#160;17: P.1: [...] = ets:lookup(table, 1)</text>
</g>
<!-- {3,16}&#45;&gt;{3,17} -->
<g id="edge37" class="edge"><title>{3,16}&#45;&gt;{3,17}</title>
<path fill="none" stroke="black" d="M1296,-173.894C1296,-170.203 1296,-166.213 1296,-162.243"/>
<polygon fill="black" stroke="black" points="1299.5,-162.001 1296,-152.001 1292.5,-162.001 1299.5,-162.001"/>
</g>
<!-- {3,18} -->
<g id="node37" class="node"><title>{3,18}</title>
<polygon fill="none" stroke="limegreen" stroke-width="5" points="1548,-94 1044,-94 1044,-58 1548,-58 1548,-94"/>
<text text-anchor="start" x="1052" y="-72.3" font-family="Monospace" font-size="14.00"> &#160;&#160;&#160;&#160;&#160;&#160;18: P.1: exits normally</text>
</g>
<!-- {3,17}&#45;&gt;{3,18} -->
<g id="edge38" class="edge"><title>{3,17}&#45;&gt;{3,18}</title>
<path fill="none" stroke="black" d="M1296,-115.894C1296,-112.203 1296,-108.213 1296,-104.243"/>
<polygon fill="black" stroke="black" points="1299.5,-104.001 1296,-94.0014 1292.5,-104.001 1299.5,-104.001"/>
</g>
<!-- {3,final} -->
<g id="node38" class="node"><title>{3,final}</title>
<polygon fill="red" stroke="black" points="1548,-36 1044,-36 1044,-0 1548,-0 1548,-36"/>
<text text-anchor="middle" x="1296" y="-14.3" font-family="Monospace" font-size="14.00">3: Error ([P] blocked)</text>
</g>
<!-- {3,18}&#45;&gt;{3,final} -->
<g id="edge39" class="edge"><title>{3,18}&#45;&gt;{3,final}</title>
<path fill="none" stroke="black" d="M1296,-57.8939C1296,-54.2029 1296,-50.2128 1296,-46.2429"/>
<polygon fill="black" stroke="black" points="1299.5,-46.0013 1296,-36.0014 1292.5,-46.0014 1299.5,-46.0013"/>
</g>
<!-- {4,11} -->
<g id="node40" class="node"><title>{4,11}</title>
<polygon fill="none" stroke="black" points="2070,-500 1566,-500 1566,-464 2070,-464 2070,-500"/>
<text text-anchor="start" x="1574" y="-478.3" font-family="Monospace" font-size="14.00"> &#160;&#160;&#160;&#160;&#160;&#160;11: P.3: [...] = ets:lookup(table, 1)</text>
</g>
<!-- {4,10}&#45;&gt;{4,11} -->
<g id="edge42" class="edge"><title>{4,10}&#45;&gt;{4,11}</title>
<path fill="none" stroke="black" d="M1818,-521.894C1818,-518.203 1818,-514.213 1818,-510.243"/>
<polygon fill="black" stroke="black" points="1821.5,-510.001 1818,-500.001 1814.5,-510.001 1821.5,-510.001"/>
</g>
<!-- {4,12} -->
<g id="node41" class="node"><title>{4,12}</title>
<polygon fill="none" stroke="black" points="2070,-442 1566,-442 1566,-406 2070,-406 2070,-442"/>
<text text-anchor="start" x="1574" y="-420.3" font-family="Monospace" font-size="14.00"> &#160;&#160;&#160;&#160;&#160;&#160;12: P.3: true = ets:insert(table, {...})</text>
</g>
<!-- {4,11}&#45;&gt;{4,12} -->
<g id="edge43" class="edge"><title>{4,11}&#45;&gt;{4,12}</title>
<path fill="none" stroke="black" d="M1818,-463.894C1818,-460.203 1818,-456.213 1818,-452.243"/>
<polygon fill="black" stroke="black" points="1821.5,-452.001 1818,-442.001 1814.5,-452.001 1821.5,-452.001"/>
</g>
<!-- {4,13} -->
<g id="node42" class="node"><title>{4,13}</title>
<polygon fill="none" stroke="limegreen" stroke-width="5" points="2070,-384 1566,-384 1566,-348 2070,-348 2070,-384"/>
<text text-anchor="start" x="1574" y="-362.3" font-family="Monospace" font-size="14.00"> &#160;&#160;&#160;&#160;&#160;&#160;13: P.3: exits normally</text>
</g>
<!-- {4,12}&#45;&gt;{4,13} -->
<g id="edge44" class="edge"><title>{4,12}&#45;&gt;{4,13}</title>
<path fill="none" stroke="black" d="M1818,-405.894C1818,-402.203 1818,-398.213 1818,-394.243"/>
<polygon fill="black" stroke="black" points="1821.5,-394.001 1818,-384.001 1814.5,-394.001 1821.5,-394.001"/>
</g>
<!-- {4,14} -->
<g id="node43" class="node"><title>{4,14}</title>
<polygon fill="none" stroke="black" points="2070,-326 1566,-326 1566,-290 2070,-290 2070,-326"/>
<text text-anchor="start" x="1574" y="-304.3" font-family="Monospace" font-size="14.00"> &#160;&#160;&#160;&#160;&#160;&#160;14: P.1: [...] = ets:lookup(table, 2)</text>
</g>
<!-- {4,13}&#45;&gt;{4,14} -->
<g id="edge45" class="edge"><title>{4,13}&#45;&gt;{4,14}</title>
<path fill="none" stroke="black" d="M1818,-347.894C1818,-344.203 1818,-340.213 1818,-336.243"/>
<polygon fill="black" stroke="black" points="1821.5,-336.001 1818,-326.001 1814.5,-336.001 1821.5,-336.001"/>
</g>
<!-- {4,15} -->
<g id="node44" class="node"><title>{4,15}</title>
<polygon fill="none" stroke="black" points="2070,-268 1566,-268 1566,-232 2070,-232 2070,-268"/>
<text text-anchor="start" x="1574" y="-246.3" font-family="Monospace" font-size="14.00"> &#160;&#160;&#160;&#160;&#160;&#160;15: P.1: [...] = ets:lookup(table, 1)</text>
</g>
<!-- {4,14}&#45;&gt;{4,15} -->
<g id="edge46" class="edge"><title>{4,14}&#45;&gt;{4,15}</title>
<path fill="none" stroke="black" d="M1818,-289.894C1818,-286.203 1818,-282.213 1818,-278.243"/>
<polygon fill="black" stroke="black" points="1821.5,-278.001 1818,-268.001 1814.5,-278.001 1821.5,-278.001"/>
</g>
<!-- {5,15} -->
<g id="node49" class="node"><title>{5,15}</title>
<polygon fill="none" stroke="black" points="2592,-268 2088,-268 2088,-232 2592,-232 2592,-268"/>
<text text-anchor="start" x="2096" y="-246.3" font-family="Monospace" font-size="14.00"> &#160;&#160;&#160;&#160;&#160;&#160;15: P.2: true = ets:insert(table, {...})</text>
</g>
<!-- {4,14}&#45;&gt;{5,15} -->
<!-- {4,16} -->
<g id="node45" class="node"><title>{4,16}</title>
<polygon fill="none" stroke="limegreen" stroke-width="5" points="2070,-210 1566,-210 1566,-174 2070,-174 2070,-210"/>
<text text-anchor="start" x="1574" y="-188.3" font-family="Monospace" font-size="14.00"> &#160;&#160;&#160;&#160;&#160;&#160;16: P.1: exits normally</text>
</g>
<!-- {4,15}&#45;&gt;{4,16} -->
<g id="edge47" class="edge"><title>{4,15}&#45;&gt;{4,16}</title>
<path fill="none" stroke="black" d="M1818,-231.894C1818,-228.203 1818,-224.213 1818,-220.243"/>
<polygon fill="black" stroke="black" points="1821.5,-220.001 1818,-210.001 1814.5,-220.001 1821.5,-220.001"/>
</g>
<!-- {4,15}&#45;&gt;{5,15} -->
<g id="edge52" class="edge"><title>{4,15}&#45;&gt;{5,15}</title>
<path fill="none" stroke="black" d="M2070.08,-250C2072.56,-250 2075.05,-250 2077.53,-250"/>
<polygon fill="black" stroke="black" points="2077.74,-253.5 2087.74,-250 2077.74,-246.5 2077.74,-253.5"/>
</g>
<!-- {4,17} -->
<g id="node46" class="node"><title>{4,17}</title>
<polygon fill="none" stroke="black" points="2070,-152 1566,-152 1566,-116 2070,-116 2070,-152"/>
<text text-anchor="start" x="1574" y="-130.3" font-family="Monospace" font-size="14.00"> &#160;&#160;&#160;&#160;&#160;&#160;17: P.2: true = ets:insert(table, {...})</text>
</g>
<!-- {4,16}&#45;&gt;{4,17} -->
<g id="edge48" class="edge"><title>{4,16}&#45;&gt;{4,17}</title>
<path fill="none" stroke="black" d="M1818,-173.894C1818,-170.203 1818,-166.213 1818,-162.243"/>
<polygon fill="black" stroke="black" points="1821.5,-162.001 1818,-152.001 1814.5,-162.001 1821.5,-162.001"/>
</g>
<!-- {4,18} -->
<g id="node47" class="node"><title>{4,18}</title>
<polygon fill="none" stroke="limegreen" stroke-width="5" points="2070,-94 1566,-94 1566,-58 2070,-58 2070,-94"/>
<text text-anchor="start" x="1574" y="-72.3" font-family="Monospace" font-size="14.00"> &#160;&#160;&#160;&#160;&#160;&#160;18: P.2: exits normally</text>
</g>
<!-- {4,17}&#45;&gt;{4,18} -->
<g id="edge49" class="edge"><title>{4,17}&#45;&gt;{4,18}</title>
<path fill="none" stroke="black" d="M1818,-115.894C1818,-112.203 1818,-108.213 1818,-104.243"/>
<polygon fill="black" stroke="black" points="1821.5,-104.001 1818,-94.0014 1814.5,-104.001 1821.5,-104.001"/>
</g>
<!-- {4,final} -->
<g id="node48" class="node"><title>{4,final}</title>
<polygon fill="red" stroke="black" points="2070,-36 1566,-36 1566,-0 2070,-0 2070,-36"/>
<text text-anchor="middle" x="1818" y="-14.3" font-family="Monospace" font-size="14.00">4: Error ([P] blocked)</text>
</g>
<!-- {4,18}&#45;&gt;{4,final} -->
<g id="edge50" class="edge"><title>{4,18}&#45;&gt;{4,final}</title>
<path fill="none" stroke="black" d="M1818,-57.8939C1818,-54.2029 1818,-50.2128 1818,-46.2429"/>
<polygon fill="black" stroke="black" points="1821.5,-46.0013 1818,-36.0014 1814.5,-46.0014 1821.5,-46.0013"/>
</g>
<!-- {5,16} -->
<g id="node50" class="node"><title>{5,16}</title>
<polygon fill="none" stroke="limegreen" stroke-width="5" points="2592,-210 2088,-210 2088,-174 2592,-174 2592,-210"/>
<text text-anchor="start" x="2096" y="-188.3" font-family="Monospace" font-size="14.00"> &#160;&#160;&#160;&#160;&#160;&#160;16: P.2: exits normally</text>
</g>
<!-- {5,15}&#45;&gt;{5,16} -->
<g id="edge53" class="edge"><title>{5,15}&#45;&gt;{5,16}</title>
<path fill="none" stroke="black" d="M2340,-231.894C2340,-228.203 2340,-224.213 2340,-220.243"/>
<polygon fill="black" stroke="black" points="2343.5,-220.001 2340,-210.001 2336.5,-220.001 2343.5,-220.001"/>
</g>
<!-- {5,17} -->
<g id="node51" class="node"><title>{5,17}</title>
<polygon fill="none" stroke="black" points="2592,-152 2088,-152 2088,-116 2592,-116 2592,-152"/>
<text text-anchor="start" x="2096" y="-130.3" font-family="Monospace" font-size="14.00"> &#160;&#160;&#160;&#160;&#160;&#160;17: P.1: [...] = ets:lookup(table, 1)</text>
</g>
<!-- {5,16}&#45;&gt;{5,17} -->
<g id="edge54" class="edge"><title>{5,16}&#45;&gt;{5,17}</title>
<path fill="none" stroke="black" d="M2340,-173.894C2340,-170.203 2340,-166.213 2340,-162.243"/>
<polygon fill="black" stroke="black" points="2343.5,-162.001 2340,-152.001 2336.5,-162.001 2343.5,-162.001"/>
</g>
<!-- {5,18} -->
<g id="node52" class="node"><title>{5,18}</title>
<polygon fill="none" stroke="limegreen" stroke-width="5" points="2592,-94 2088,-94 2088,-58 2592,-58 2592,-94"/>
<text text-anchor="start" x="2096" y="-72.3" font-family="Monospace" font-size="14.00"> &#160;&#160;&#160;&#160;&#160;&#160;18: P.1: exits normally</text>
</g>
<!-- {5,17}&#45;&gt;{5,18} -->
<g id="edge55" class="edge"><title>{5,17}&#45;&gt;{5,18}</title>
<path fill="none" stroke="black" d="M2340,-115.894C2340,-112.203 2340,-108.213 2340,-104.243"/>
<polygon fill="black" stroke="black" points="2343.5,-104.001 2340,-94.0014 2336.5,-104.001 2343.5,-104.001"/>
</g>
<!-- {5,final} -->
<g id="node53" class="node"><title>{5,final}</title>
<polygon fill="red" stroke="black" points="2592,-36 2088,-36 2088,-0 2592,-0 2592,-36"/>
<text text-anchor="middle" x="2340" y="-14.3" font-family="Monospace" font-size="14.00">5: Error ([P] blocked)</text>
</g>
<!-- {5,18}&#45;&gt;{5,final} -->
<g id="edge56" class="edge"><title>{5,18}&#45;&gt;{5,final}</title>
<path fill="none" stroke="black" d="M2340,-57.8939C2340,-54.2029 2340,-50.2128 2340,-46.2429"/>
<polygon fill="black" stroke="black" points="2343.5,-46.0013 2340,-36.0014 2336.5,-46.0014 2343.5,-46.0013"/>
</g>
<!-- {6,9} -->
<g id="node55" class="node"><title>{6,9}</title>
<polygon fill="none" stroke="black" points="3114,-616 2610,-616 2610,-580 3114,-580 3114,-616"/>
<text text-anchor="start" x="2618" y="-594.3" font-family="Monospace" font-size="14.00"> &#160;&#160;&#160;&#160;&#160;&#160;&#160;9: P.3: [...] = ets:lookup(table, 1)</text>
</g>
<!-- {6,8}&#45;&gt;{6,9} -->
<g id="edge59" class="edge"><title>{6,8}&#45;&gt;{6,9}</title>
<path fill="none" stroke="black" d="M2862,-637.894C2862,-634.203 2862,-630.213 2862,-626.243"/>
<polygon fill="black" stroke="black" points="2865.5,-626.001 2862,-616.001 2858.5,-626.001 2865.5,-626.001"/>
</g>
<!-- {6,10} -->
<g id="node56" class="node"><title>{6,10}</title>
<polygon fill="none" stroke="black" points="3114,-558 2610,-558 2610,-522 3114,-522 3114,-558"/>
<text text-anchor="start" x="2618" y="-536.3" font-family="Monospace" font-size="14.00"> &#160;&#160;&#160;&#160;&#160;&#160;10: P.3: true = ets:insert(table, {...})</text>
</g>
<!-- {6,9}&#45;&gt;{6,10} -->
<g id="edge60" class="edge"><title>{6,9}&#45;&gt;{6,10}</title>
<path fill="none" stroke="black" d="M2862,-579.894C2862,-576.203 2862,-572.213 2862,-568.243"/>
<polygon fill="black" stroke="black" points="2865.5,-568.001 2862,-558.001 2858.5,-568.001 2865.5,-568.001"/>
</g>
<!-- {6,11} -->
<g id="node57" class="node"><title>{6,11}</title>
<polygon fill="none" stroke="limegreen" stroke-width="5" points="3114,-500 2610,-500 2610,-464 3114,-464 3114,-500"/>
<text text-anchor="start" x="2618" y="-478.3" font-family="Monospace" font-size="14.00"> &#160;&#160;&#160;&#160;&#160;&#160;11: P.3: exits normally</text>
</g>
<!-- {6,10}&#45;&gt;{6,11} -->
<g id="edge61" class="edge"><title>{6,10}&#45;&gt;{6,11}</title>
<path fill="none" stroke="black" d="M2862,-521.894C2862,-518.203 2862,-514.213 2862,-510.243"/>
<polygon fill="black" stroke="black" points="2865.5,-510.001 2862,-500.001 2858.5,-510.001 2865.5,-510.001"/>
</g>
<!-- {6,12} -->
<g id="node58" class="node"><title>{6,12}</title>
<polygon fill="none" stroke="black" points="3114,-442 2610,-442 2610,-406 3114,-406 3114,-442"/>
<text text-anchor="start" x="2618" y="-420.3" font-family="Monospace" font-size="14.00"> &#160;&#160;&#160;&#160;&#160;&#160;12: P.1: [...] = ets:lookup(table, 2)</text>
</g>
<!-- {6,11}&#45;&gt;{6,12} -->
<g id="edge62" class="edge"><title>{6,11}&#45;&gt;{6,12}</title>
<path fill="none" stroke="black" d="M2862,-463.894C2862,-460.203 2862,-456.213 2862,-452.243"/>
<polygon fill="black" stroke="black" points="2865.5,-452.001 2862,-442.001 2858.5,-452.001 2865.5,-452.001"/>
</g>
<!-- {6,13} -->
<g id="node59" class="node"><title>{6,13}</title>
<polygon fill="none" stroke="black" points="3114,-384 2610,-384 2610,-348 3114,-348 3114,-384"/>
<text text-anchor="start" x="2618" y="-362.3" font-family="Monospace" font-size="14.00"> &#160;&#160;&#160;&#160;&#160;&#160;13: P.1: [...] = ets:lookup(table, 1)</text>
</g>
<!-- {6,12}&#45;&gt;{6,13} -->
<g id="edge63" class="edge"><title>{6,12}&#45;&gt;{6,13}</title>
<path fill="none" stroke="black" d="M2862,-405.894C2862,-402.203 2862,-398.213 2862,-394.243"/>
<polygon fill="black" stroke="black" points="2865.5,-394.001 2862,-384.001 2858.5,-394.001 2865.5,-394.001"/>
</g>
<!-- {6,14} -->
<g id="node60" class="node"><title>{6,14}</title>
<polygon fill="none" stroke="limegreen" stroke-width="5" points="3114,-326 2610,-326 2610,-290 3114,-290 3114,-326"/>
<text text-anchor="start" x="2618" y="-304.3" font-family="Monospace" font-size="14.00"> &#160;&#160;&#160;&#160;&#160;&#160;14: P.1: exits normally</text>
</g>
<!-- {6,13}&#45;&gt;{6,14} -->
<g id="edge64" class="edge"><title>{6,13}&#45;&gt;{6,14}</title>
<path fill="none" stroke="black" d="M2862,-347.894C2862,-344.203 2862,-340.213 2862,-336.243"/>
<polygon fill="black" stroke="black" points="2865.5,-336.001 2862,-326.001 2858.5,-336.001 2865.5,-336.001"/>
</g>
<!-- {6,final} -->
<g id="node61" class="node"><title>{6,final}</title>
<polygon fill="yellow" stroke="black" points="3114,-268 2610,-268 2610,-232 3114,-232 3114,-268"/>
<text text-anchor="middle" x="2862" y="-246.3" font-family="Monospace" font-size="14.00">6: SSB</text>
</g>
<!-- {6,14}&#45;&gt;{6,final} -->
<g id="edge65" class="edge"><title>{6,14}&#45;&gt;{6,final}</title>
<path fill="none" stroke="black" d="M2862,-289.894C2862,-286.203 2862,-282.213 2862,-278.243"/>
<polygon fill="black" stroke="black" points="2865.5,-278.001 2862,-268.001 2858.5,-278.001 2865.5,-278.001"/>
</g>
</g>
</svg>
