<?xml version="1.0" encoding="UTF-8"?><svg xmlns="http://www.w3.org/2000/svg" xmlns:xlink="http://www.w3.org/1999/xlink" fill-opacity="1" color-rendering="auto" color-interpolation="auto" text-rendering="auto" stroke="black" stroke-linecap="square" width="599" stroke-miterlimit="10" shape-rendering="auto" stroke-opacity="1" fill="black" stroke-dasharray="none" font-weight="normal" stroke-width="1" height="305" font-family="'Dialog'" font-style="normal" stroke-linejoin="miter" font-size="12px" stroke-dashoffset="0" image-rendering="auto">
  <!--Generated by ySVG 2.5-->
  <defs id="genericDefs"/>
  <g>
    <defs id="defs1">
      <clipPath clipPathUnits="userSpaceOnUse" id="clipPath1">
        <path d="M0 0 L599 0 L599 305 L0 305 L0 0 Z"/>
      </clipPath>
      <clipPath clipPathUnits="userSpaceOnUse" id="clipPath2">
        <path d="M139 64 L738 64 L738 369 L139 369 L139 64 Z"/>
      </clipPath>
    </defs>
    <g fill="white" text-rendering="geometricPrecision" shape-rendering="geometricPrecision" transform="translate(-139,-64)" stroke="white">
      <rect x="139" width="599" height="305" y="64" clip-path="url(#clipPath2)" stroke="none"/>
    </g>
    <g fill="rgb(255,204,0)" text-rendering="geometricPrecision" shape-rendering="geometricPrecision" transform="matrix(1,0,0,1,-139,-64)" stroke="rgb(255,204,0)">
      <rect x="154" width="92" height="30" y="79.5" clip-path="url(#clipPath2)" stroke="none"/>
    </g>
    <g text-rendering="geometricPrecision" stroke-miterlimit="1.45" shape-rendering="geometricPrecision" transform="matrix(1,0,0,1,-139,-64)" stroke-linecap="butt">
      <rect fill="none" x="154" width="92" height="30" y="79.5" clip-path="url(#clipPath2)"/>
      <text x="181.0303" xml:space="preserve" y="98.6543" clip-path="url(#clipPath2)" font-family="sans-serif" stroke="none">p:w(x)</text>
    </g>
    <g fill="lime" text-rendering="geometricPrecision" shape-rendering="geometricPrecision" transform="matrix(1,0,0,1,-139,-64)" stroke="lime">
      <rect x="154" width="92" height="30" y="205" clip-path="url(#clipPath2)" stroke="none"/>
    </g>
    <g text-rendering="geometricPrecision" stroke-miterlimit="1.45" shape-rendering="geometricPrecision" transform="matrix(1,0,0,1,-139,-64)" stroke-linecap="butt">
      <rect fill="none" x="154" width="92" height="30" y="205" clip-path="url(#clipPath2)"/>
      <text x="183.4707" xml:space="preserve" y="224.1543" clip-path="url(#clipPath2)" font-family="sans-serif" stroke="none">q:r(x)</text>
    </g>
    <g fill="lime" text-rendering="geometricPrecision" shape-rendering="geometricPrecision" transform="matrix(1,0,0,1,-139,-64)" stroke="lime">
      <rect x="154" width="92" height="30" y="145" clip-path="url(#clipPath2)" stroke="none"/>
    </g>
    <g text-rendering="geometricPrecision" stroke-miterlimit="1.45" shape-rendering="geometricPrecision" transform="matrix(1,0,0,1,-139,-64)" stroke-linecap="butt">
      <rect fill="none" x="154" width="92" height="30" y="145" clip-path="url(#clipPath2)"/>
      <text x="183.4707" xml:space="preserve" y="164.1543" clip-path="url(#clipPath2)" font-family="sans-serif" stroke="none">q:r(y)</text>
    </g>
    <g fill="aqua" text-rendering="geometricPrecision" shape-rendering="geometricPrecision" transform="matrix(1,0,0,1,-139,-64)" stroke="aqua">
      <rect x="154" width="92" height="30" y="265" clip-path="url(#clipPath2)" stroke="none"/>
    </g>
    <g text-rendering="geometricPrecision" stroke-miterlimit="1.45" shape-rendering="geometricPrecision" transform="matrix(1,0,0,1,-139,-64)" stroke-linecap="butt">
      <rect fill="none" x="154" width="92" height="30" y="265" clip-path="url(#clipPath2)"/>
      <text x="185.2139" xml:space="preserve" y="284.1543" clip-path="url(#clipPath2)" font-family="sans-serif" stroke="none">r:r(z)</text>
    </g>
    <g fill="aqua" text-rendering="geometricPrecision" shape-rendering="geometricPrecision" transform="matrix(1,0,0,1,-139,-64)" stroke="aqua">
      <rect x="154" width="92" height="30" y="324" clip-path="url(#clipPath2)" stroke="none"/>
    </g>
    <g text-rendering="geometricPrecision" stroke-miterlimit="1.45" shape-rendering="geometricPrecision" transform="matrix(1,0,0,1,-139,-64)" stroke-linecap="butt">
      <rect fill="none" x="154" width="92" height="30" y="324" clip-path="url(#clipPath2)"/>
      <text x="184.8125" xml:space="preserve" y="343.1543" clip-path="url(#clipPath2)" font-family="sans-serif" stroke="none">r:r(x)</text>
    </g>
    <g fill="lime" text-rendering="geometricPrecision" shape-rendering="geometricPrecision" transform="matrix(1,0,0,1,-139,-64)" stroke="lime">
      <rect x="313" width="92" height="30" y="145" clip-path="url(#clipPath2)" stroke="none"/>
    </g>
    <g text-rendering="geometricPrecision" stroke-miterlimit="1.45" shape-rendering="geometricPrecision" transform="matrix(1,0,0,1,-139,-64)" stroke-linecap="butt">
      <rect fill="none" x="313" width="92" height="30" y="145" clip-path="url(#clipPath2)"/>
      <text x="329.1201" xml:space="preserve" y="164.1543" clip-path="url(#clipPath2)" font-family="sans-serif" stroke="none">q:r(x) {p}</text>
    </g>
    <g fill="lime" text-rendering="geometricPrecision" shape-rendering="geometricPrecision" transform="matrix(1,0,0,1,-139,-64)" stroke="lime">
      <rect x="313" width="92" height="30" y="79.5" clip-path="url(#clipPath2)" stroke="none"/>
    </g>
    <g text-rendering="geometricPrecision" stroke-miterlimit="1.45" shape-rendering="geometricPrecision" transform="matrix(1,0,0,1,-139,-64)" stroke-linecap="butt">
      <rect fill="none" x="313" width="92" height="30" y="79.5" clip-path="url(#clipPath2)"/>
      <text x="329.1201" xml:space="preserve" y="98.6543" clip-path="url(#clipPath2)" font-family="sans-serif" stroke="none">q:r(y) {p}</text>
    </g>
    <g fill="rgb(255,204,0)" text-rendering="geometricPrecision" shape-rendering="geometricPrecision" transform="matrix(1,0,0,1,-139,-64)" stroke="rgb(255,204,0)">
      <rect x="313" width="92" height="30" y="205" clip-path="url(#clipPath2)" stroke="none"/>
    </g>
    <g text-rendering="geometricPrecision" stroke-miterlimit="1.45" shape-rendering="geometricPrecision" transform="matrix(1,0,0,1,-139,-64)" stroke-linecap="butt">
      <rect fill="none" x="313" width="92" height="30" y="205" clip-path="url(#clipPath2)"/>
      <text x="340.0303" xml:space="preserve" y="224.1543" clip-path="url(#clipPath2)" font-family="sans-serif" stroke="none">p:w(x)</text>
    </g>
    <g fill="aqua" text-rendering="geometricPrecision" shape-rendering="geometricPrecision" transform="matrix(1,0,0,1,-139,-64)" stroke="aqua">
      <rect x="313" width="92" height="30" y="265" clip-path="url(#clipPath2)" stroke="none"/>
    </g>
    <g text-rendering="geometricPrecision" stroke-miterlimit="1.45" shape-rendering="geometricPrecision" transform="matrix(1,0,0,1,-139,-64)" stroke-linecap="butt">
      <rect fill="none" x="313" width="92" height="30" y="265" clip-path="url(#clipPath2)"/>
      <text x="344.2139" xml:space="preserve" y="284.1543" clip-path="url(#clipPath2)" font-family="sans-serif" stroke="none">r:r(z)</text>
    </g>
    <g fill="aqua" text-rendering="geometricPrecision" shape-rendering="geometricPrecision" transform="matrix(1,0,0,1,-139,-64)" stroke="aqua">
      <rect x="313" width="92" height="30" y="324" clip-path="url(#clipPath2)" stroke="none"/>
    </g>
    <g text-rendering="geometricPrecision" stroke-miterlimit="1.45" shape-rendering="geometricPrecision" transform="matrix(1,0,0,1,-139,-64)" stroke-linecap="butt">
      <rect fill="none" x="313" width="92" height="30" y="324" clip-path="url(#clipPath2)"/>
      <text x="343.8125" xml:space="preserve" y="343.1543" clip-path="url(#clipPath2)" font-family="sans-serif" stroke="none">r:r(x)</text>
    </g>
    <g fill="rgb(255,204,0)" text-rendering="geometricPrecision" shape-rendering="geometricPrecision" transform="matrix(1,0,0,1,-139,-64)" stroke="rgb(255,204,0)">
      <rect x="472" width="92" height="30" y="324" clip-path="url(#clipPath2)" stroke="none"/>
    </g>
    <g text-rendering="geometricPrecision" stroke-miterlimit="1.45" shape-rendering="geometricPrecision" transform="matrix(1,0,0,1,-139,-64)" stroke-linecap="butt">
      <rect fill="none" x="472" width="92" height="30" y="324" clip-path="url(#clipPath2)"/>
      <text x="499.0303" xml:space="preserve" y="343.1543" clip-path="url(#clipPath2)" font-family="sans-serif" stroke="none">p:w(x)</text>
    </g>
    <g fill="aqua" text-rendering="geometricPrecision" shape-rendering="geometricPrecision" transform="matrix(1,0,0,1,-139,-64)" stroke="aqua">
      <rect x="472" width="92" height="30" y="206" clip-path="url(#clipPath2)" stroke="none"/>
    </g>
    <g text-rendering="geometricPrecision" stroke-miterlimit="1.45" shape-rendering="geometricPrecision" transform="matrix(1,0,0,1,-139,-64)" stroke-linecap="butt">
      <rect fill="none" x="472" width="92" height="30" y="206" clip-path="url(#clipPath2)"/>
      <text x="489.8633" xml:space="preserve" y="225.1543" clip-path="url(#clipPath2)" font-family="sans-serif" stroke="none">r:r(z) {p}</text>
    </g>
    <g fill="aqua" text-rendering="geometricPrecision" shape-rendering="geometricPrecision" transform="matrix(1,0,0,1,-139,-64)" stroke="aqua">
      <rect x="472" width="92" height="30" y="265" clip-path="url(#clipPath2)" stroke="none"/>
    </g>
    <g text-rendering="geometricPrecision" stroke-miterlimit="1.45" shape-rendering="geometricPrecision" transform="matrix(1,0,0,1,-139,-64)" stroke-linecap="butt">
      <rect fill="none" x="472" width="92" height="30" y="265" clip-path="url(#clipPath2)"/>
      <text x="489.4619" xml:space="preserve" y="284.1543" clip-path="url(#clipPath2)" font-family="sans-serif" stroke="none">r:r(x) {p}</text>
    </g>
    <g fill="lime" text-rendering="geometricPrecision" shape-rendering="geometricPrecision" transform="matrix(1,0,0,1,-139,-64)" stroke="lime">
      <rect x="631" width="92" height="30" y="324" clip-path="url(#clipPath2)" stroke="none"/>
    </g>
    <g stroke-linecap="round" transform="matrix(1,0,0,1,-139,-64)" stroke-dashoffset="2" text-rendering="geometricPrecision" shape-rendering="geometricPrecision" stroke-dasharray="0,4" stroke-miterlimit="1.45">
      <rect fill="none" x="631" width="92" height="30" y="324" clip-path="url(#clipPath2)"/>
    </g>
    <g text-rendering="geometricPrecision" stroke-miterlimit="1.45" shape-rendering="geometricPrecision" font-family="sans-serif" transform="matrix(1,0,0,1,-139,-64)" stroke-linecap="butt">
      <text x="660.4707" xml:space="preserve" y="343.1543" clip-path="url(#clipPath2)" stroke="none">q:r(x)</text>
    </g>
    <g fill="aqua" text-rendering="geometricPrecision" shape-rendering="geometricPrecision" transform="matrix(1,0,0,1,-139,-64)" stroke="aqua">
      <rect x="631" width="92" height="30" y="145" clip-path="url(#clipPath2)" stroke="none"/>
    </g>
    <g stroke-linecap="round" transform="matrix(1,0,0,1,-139,-64)" stroke-dashoffset="2" text-rendering="geometricPrecision" shape-rendering="geometricPrecision" stroke-dasharray="0,4" stroke-miterlimit="1.45">
      <rect fill="none" x="631" width="92" height="30" y="145" clip-path="url(#clipPath2)"/>
    </g>
    <g text-rendering="geometricPrecision" stroke-miterlimit="1.45" shape-rendering="geometricPrecision" font-family="sans-serif" transform="matrix(1,0,0,1,-139,-64)" stroke-linecap="butt">
      <text x="648.8633" xml:space="preserve" y="164.1543" clip-path="url(#clipPath2)" stroke="none">r:r(z) {p}</text>
    </g>
    <g fill="aqua" text-rendering="geometricPrecision" shape-rendering="geometricPrecision" transform="matrix(1,0,0,1,-139,-64)" stroke="aqua">
      <rect x="631" width="92" height="30" y="206" clip-path="url(#clipPath2)" stroke="none"/>
    </g>
    <g stroke-linecap="round" transform="matrix(1,0,0,1,-139,-64)" stroke-dashoffset="2" text-rendering="geometricPrecision" shape-rendering="geometricPrecision" stroke-dasharray="0,4" stroke-miterlimit="1.45">
      <rect fill="none" x="631" width="92" height="30" y="206" clip-path="url(#clipPath2)"/>
    </g>
    <g text-rendering="geometricPrecision" stroke-miterlimit="1.45" shape-rendering="geometricPrecision" font-family="sans-serif" transform="matrix(1,0,0,1,-139,-64)" stroke-linecap="butt">
      <text x="648.4619" xml:space="preserve" y="225.1543" clip-path="url(#clipPath2)" stroke="none">r:r(x) {p}</text>
    </g>
    <g fill="rgb(255,204,0)" text-rendering="geometricPrecision" shape-rendering="geometricPrecision" transform="matrix(1,0,0,1,-139,-64)" stroke="rgb(255,204,0)">
      <rect x="631" width="92" height="30" y="265" clip-path="url(#clipPath2)" stroke="none"/>
    </g>
    <g stroke-linecap="round" transform="matrix(1,0,0,1,-139,-64)" stroke-dashoffset="2" text-rendering="geometricPrecision" shape-rendering="geometricPrecision" stroke-dasharray="0,4" stroke-miterlimit="1.45">
      <rect fill="none" x="631" width="92" height="30" y="265" clip-path="url(#clipPath2)"/>
    </g>
    <g text-rendering="geometricPrecision" stroke-miterlimit="1.45" shape-rendering="geometricPrecision" font-family="sans-serif" transform="matrix(1,0,0,1,-139,-64)" stroke-linecap="butt">
      <text x="658.0303" xml:space="preserve" y="284.1543" clip-path="url(#clipPath2)" stroke="none">p:w(x)</text>
      <path fill="none" d="M200 109.5 L200 137" clip-path="url(#clipPath2)"/>
      <path d="M200 145 L205 133 L200 136 L195 133 Z" clip-path="url(#clipPath2)" stroke="none"/>
      <path fill="none" d="M200 175 L200 197" clip-path="url(#clipPath2)"/>
      <path d="M200 205 L205 193 L200 196 L195 193 Z" clip-path="url(#clipPath2)" stroke="none"/>
      <path fill="none" d="M200 235 L200 257" clip-path="url(#clipPath2)"/>
      <path d="M200 265 L205 253 L200 256 L195 253 Z" clip-path="url(#clipPath2)" stroke="none"/>
      <path fill="none" d="M200 295 L200 316" clip-path="url(#clipPath2)"/>
      <path d="M200 324 L205 312 L200 315 L195 312 Z" clip-path="url(#clipPath2)" stroke="none"/>
      <path fill="none" d="M246 94.5 L305 94.5" clip-path="url(#clipPath2)"/>
      <path d="M313 94.5 L301 89.5 L304 94.5 L301 99.5 Z" clip-path="url(#clipPath2)" stroke="none"/>
      <path fill="none" d="M359 109.5 L359 137" clip-path="url(#clipPath2)"/>
      <path d="M359 145 L364 133 L359 136 L354 133 Z" clip-path="url(#clipPath2)" stroke="none"/>
      <path fill="none" d="M359 175 L359 197" clip-path="url(#clipPath2)"/>
      <path d="M359 205 L364 193 L359 196 L354 193 Z" clip-path="url(#clipPath2)" stroke="none"/>
      <path fill="none" d="M359 235 L359 257" clip-path="url(#clipPath2)"/>
      <path d="M359 265 L364 253 L359 256 L354 253 Z" clip-path="url(#clipPath2)" stroke="none"/>
      <path fill="none" d="M359 295 L359 316" clip-path="url(#clipPath2)"/>
      <path d="M359 324 L364 312 L359 315 L354 312 Z" clip-path="url(#clipPath2)" stroke="none"/>
      <path fill="none" d="M405 220.2893 L464.0002 220.6604" clip-path="url(#clipPath2)"/>
      <path d="M472 220.7107 L460.0317 215.6353 L463.0002 220.6541 L459.9688 225.6351 Z" clip-path="url(#clipPath2)" stroke="none"/>
      <path fill="none" d="M518 236 L518 257" clip-path="url(#clipPath2)"/>
      <path d="M518 265 L523 253 L518 256 L513 253 Z" clip-path="url(#clipPath2)" stroke="none"/>
      <path fill="none" d="M518 295 L518 316" clip-path="url(#clipPath2)"/>
      <path d="M518 324 L523 312 L518 315 L513 312 Z" clip-path="url(#clipPath2)" stroke="none"/>
    </g>
    <g stroke-linecap="round" transform="matrix(1,0,0,1,-139,-64)" stroke-dashoffset="2" text-rendering="geometricPrecision" shape-rendering="geometricPrecision" stroke-dasharray="0,4" stroke-miterlimit="1.45">
      <path fill="none" d="M405 160 L623 160" clip-path="url(#clipPath2)"/>
      <path d="M631 160 L619 155 L622 160 L619 165 Z" clip-path="url(#clipPath2)" stroke="none"/>
      <path fill="none" stroke-dasharray="none" d="M677 175 L677 198" stroke-dashoffset="0" clip-path="url(#clipPath2)" stroke-linecap="butt"/>
      <path stroke-dasharray="none" d="M677 206 L682 194 L677 197 L672 194 Z" stroke-dashoffset="0" clip-path="url(#clipPath2)" stroke-linecap="butt" stroke="none"/>
      <path fill="none" stroke-dasharray="none" d="M677 236 L677 257" stroke-dashoffset="0" clip-path="url(#clipPath2)" stroke-linecap="butt"/>
      <path stroke-dasharray="none" d="M677 265 L682 253 L677 256 L672 253 Z" stroke-dashoffset="0" clip-path="url(#clipPath2)" stroke-linecap="butt" stroke="none"/>
      <path fill="none" stroke-dasharray="none" d="M677 295 L677 316" stroke-dashoffset="0" clip-path="url(#clipPath2)" stroke-linecap="butt"/>
      <path stroke-dasharray="none" d="M677 324 L682 312 L677 315 L672 312 Z" stroke-dashoffset="0" clip-path="url(#clipPath2)" stroke-linecap="butt" stroke="none"/>
    </g>
  </g>
</svg>
